<?xml version="1.0" encoding="UTF-8"?>
<svg width="700pt" height="700pt" version="1.1" viewBox="0 0 700 700" xmlns="http://www.w3.org/2000/svg" xmlns:xlink="http://www.w3.org/1999/xlink">
 <defs>
  <symbol id="w" overflow="visible">
   <path d="m0.03125 0h-0.015625-0.015625v-0.015625-0.015625h0.015625 0.015625-0.015625v0.015625 0.015625h0.015625v-0.015625z"/>
  </symbol>
  <symbol id="e" overflow="visible">
   <path d="m0.015625-0.015625v0.015625h-0.015625v-0.03125h0.015625v0.015625-0.015625z"/>
  </symbol>
  <symbol id="b" overflow="visible">
   <path d="m0.03125-0.015625h-0.015625v0.015625c0.0078125 0 0.015625-0.0039062 0.015625-0.015625v0.015625h-0.015625-0.015625v-0.015625l0.015625-0.015625v0.015625h0.015625z"/>
  </symbol>
  <symbol id="a" overflow="visible">
   <path d="m0.015625-0.015625v0.015625-0.015625zm0.015625 0v0.015625h-0.015625-0.015625v-0.015625h0.015625-0.015625v-0.015625h0.015625v0.015625h0.015625z"/>
  </symbol>
  <symbol id="d" overflow="visible">
   <path d="m0.015625-0.03125v0.015625 0.015625h-0.015625v-0.015625-0.015625z"/>
  </symbol>
  <symbol id="l" overflow="visible">
   <path d="m0.015625-0.015625v-0.015625h0.015625v0.03125h-0.015625-0.015625v-0.015625l0.015625-0.015625v0.015625zm0 0.015625v-0.015625 0.015625z"/>
  </symbol>
  <symbol id="k" overflow="visible">
   <path d="m0.015625 0v-0.015625 0.015625zm0-0.015625v-0.015625c0.0078125 0 0.015625 0.0078125 0.015625 0.015625v0.015625h-0.015625-0.015625v-0.03125h0.015625z"/>
  </symbol>
  <symbol id="j" overflow="visible">
   <path d="m0-0.03125h0.015625v0.015625-0.015625h0.015625l-0.015625 0.03125v0.015625h-0.015625v-0.015625h0.015625z"/>
  </symbol>
  <symbol id="i" overflow="visible">
   <path d="m0.015625-0.03125v0.015625 0.015625h0.015625v-0.015625c0-0.0078125-0.0078125-0.015625-0.015625-0.015625zm0 0h0.015625v0.015625 0.015625h-0.015625-0.015625v-0.015625-0.015625h0.015625z"/>
  </symbol>
  <symbol id="v" overflow="visible">
   <path d="m0-0.03125h0.015625v0.03125h-0.015625z"/>
  </symbol>
  <symbol id="f" overflow="visible">
   <path d="m0.03125-0.015625v0.015625h-0.015625v-0.015625 0.015625h-0.015625v-0.03125h0.015625v0.015625-0.015625c0.0078125 0 0.015625 0.0078125 0.015625 0.015625z"/>
  </symbol>
  <symbol id="h" overflow="visible">
   <path d="m0-0.03125h0.015625 0.015625v0.015625h-0.015625v0.015625h-0.015625zm0.015625 0v0.015625-0.015625z"/>
  </symbol>
  <symbol id="g" overflow="visible">
   <path d="m0.03125-0.03125v0.015625h-0.015625c0.0078125 0 0.015625 0.0078125 0.015625 0.015625h-0.015625-0.015625 0.015625v-0.015625h-0.015625l0.015625-0.015625h0.015625z"/>
  </symbol>
  <symbol id="c" overflow="visible">
   <path d="m0.015625-0.015625v0.015625-0.015625zm0-0.015625v0.015625h0.015625c0 0.011719-0.0078125 0.015625-0.015625 0.015625h-0.015625v-0.015625l0.015625-0.015625z"/>
  </symbol>
  <symbol id="u" overflow="visible">
   <path d="m0-0.03125h0.015625v0.015625-0.015625h0.015625l-0.015625 0.03125z"/>
  </symbol>
  <symbol id="t" overflow="visible">
   <path d="m0-0.03125h0.015625v0.015625-0.015625h0.015625l-0.015625 0.015625 0.015625 0.015625h-0.015625v-0.015625 0.015625h-0.015625z"/>
  </symbol>
  <symbol id="s" overflow="visible">
   <path d="m0.015625-0.03125v0.03125h-0.015625v-0.03125h0.015625z"/>
  </symbol>
  <symbol id="r" overflow="visible">
   <path d="m0.03125-0.015625v-0.015625c0.0078125 0 0.015625 0.0078125 0.015625 0.015625v0.015625h-0.015625v-0.015625 0.015625h-0.015625v-0.015625 0.015625h-0.015625v-0.03125h0.015625v0.015625-0.015625 0.015625h0.015625z"/>
  </symbol>
  <symbol id="q" overflow="visible">
   <path d="m0.03125-0.015625v0.015625h-0.015625v-0.015625 0.015625h-0.015625v-0.03125h0.015625v0.015625-0.015625c0.0078125 0 0.015625 0.0078125 0.015625 0.015625z"/>
  </symbol>
  <symbol id="p" overflow="visible">
   <path d="m0-0.03125h0.015625l0.015625 0.015625v-0.015625 0.03125l-0.015625-0.015625v0.015625h-0.015625z"/>
  </symbol>
  <symbol id="o" overflow="visible">
   <path d="m0-0.015625v-0.015625h0.015625v0.015625 0.015625-0.015625-0.015625h0.015625v0.03125h-0.015625-0.015625v-0.015625z"/>
  </symbol>
  <symbol id="n" overflow="visible">
   <path d="m0-0.03125h0.015625v0.03125h-0.015625v0.015625zm0 0h0.015625z"/>
  </symbol>
  <symbol id="m" overflow="visible">
   <path d="m0.03125-0.03125v0.015625h-0.015625v0.015625h0.015625-0.015625-0.015625v-0.015625l0.015625-0.015625h0.015625z"/>
  </symbol>
 </defs>
 <g>
  <path d="m349.12 63.496c4.7617 0 9.0625 1.9336 12.188 5.0508 3.1172 3.1172 5.0508 7.4297 5.0508 12.188 0 4.7617-1.9336 9.0625-5.0508 12.188-3.1172 3.1172-7.4297 5.0508-12.188 5.0508-4.7617 0-9.0625-1.9336-12.188-5.0508-3.1172-3.1172-5.0508-7.4297-5.0508-12.188 0-4.7617 1.9336-9.0625 5.0508-12.188 3.1172-3.1172 7.4297-5.0508 12.188-5.0508zm-138.1 228.87c-10.797 7.6719-25.5 2.9023-40.125-1.8398-12.402-4.0234-24.723-8.0156-32.441-3.0508l27.691 27.691 9.7344-9.7344c0.91406-0.91406 2.3906-0.91406 3.3047 0 0.91406 0.91406 0.91406 2.3906 0 3.3047l-9.7344 9.7344 7.6992 7.6992 9.8008-9.8008c0.91406-0.91406 2.3906-0.91406 3.3047 0 0.91406 0.91406 0.91406 2.3906 0 3.3047l-9.8008 9.8008 7.6992 7.6992 9.8672-9.8672c0.91406-0.91406 2.3906-0.91406 3.3047 0 0.91406 0.91406 0.91406 2.3906 0 3.3047l-9.8672 9.8672 12.543 12.543 20.039-47.629-13.02-13.02zm-80.539-7.8008c10.539-11.555 26.562-6.3555 42.699-1.1211 13.793 4.4688 27.672 8.9805 35.43 1.2305 1.457-1.457 3.8164-1.457 5.2812 0l13.289 13.289 85.773-203.82c-3.2305-4.0586-5.0664-8.7344-5.0664-13.738 0-8.1484 4.8438-15.41 12.684-20.57 7.3828-4.8516 17.492-7.8594 28.59-7.8594 11.09 0 21.207 3.0039 28.59 7.8594 7.8398 5.1523 12.684 12.422 12.684 20.57 0 5.1055-1.9023 9.8672-5.2539 13.98l86.27 205 14.699-14.699c1.457-1.457 3.8164-1.457 5.2812 0 0.046875 0.046875 0.09375 0.09375 0.12891 0.14062 10.203 9.8203 22.398 5.0195 34.887 0.11328 14.02-5.5156 28.363-11.164 42.766-0.61719 1.6602 1.2148 2.0156 3.5469 0.80078 5.207-0.11328 0.16016-0.23438 0.29688-0.375 0.42969l0.007813 0.007813-71.914 71.914 53.043 126.04 0.046875 0.12109c1.8477 4.8086 0.88672 8.7812-1.3242 11.332-0.96094 1.1094-2.1367 1.9336-3.4258 2.4453-1.2773 0.50391-2.6875 0.71094-4.125 0.57031-3.332-0.31641-6.6836-2.4648-8.5117-6.8594l-53.621-115.7-127.14 127.14c-1.457 1.457-3.8164 1.457-5.2812 0l-128.51-128.51-54.254 117.07c-1.8281 4.4062-5.1875 6.543-8.5117 6.8594-1.4375 0.14063-2.8477-0.066406-4.125-0.57031-1.2891-0.51172-2.4648-1.3359-3.4258-2.4453-2.2227-2.5586-3.1719-6.5234-1.3242-11.332l0.046875-0.12109 53.629-127.45-70.504-70.504c-1.457-1.457-1.457-3.8164 0-5.2812 0.039062-0.039063 0.074219-0.066406 0.11328-0.10156zm207.87 202.8 9.082-9.082c0.60547-0.60547 1.457-0.80078 2.2305-0.60547 0.69922-0.09375 1.4375 0.12109 1.9688 0.66406l9.5312 9.5312 7.6992-7.6992-9.5938-9.5938c-0.91406-0.91406-0.91406-2.3906 0-3.3047 0.91406-0.91406 2.3906-0.91406 3.3047 0l9.5938 9.5938 7.6992-7.6992-9.6602-9.6602c-0.91406-0.91406-0.91406-2.3906 0-3.3047 0.91406-0.91406 2.3906-0.91406 3.3047 0l9.6602 9.6602 7.6992-7.6992-9.7266-9.7266c-0.91406-0.91406-0.91406-2.3906 0-3.3047 0.91406-0.91406 2.3906-0.91406 3.3047 0l9.7266 9.7266 18.668-18.668-9.25-9.25c-0.91406-0.91406-0.91406-2.3906 0-3.3047 0.91406-0.91406 2.3906-0.91406 3.3047 0l9.25 9.25 7.6992-7.6992-9.3164-9.3164c-0.91406-0.91406-0.91406-2.3906 0-3.3047 0.91406-0.91406 2.3906-0.91406 3.3047 0l9.3164 9.3164 7.6992-7.6992-9.3789-9.3789c-0.91406-0.91406-0.91406-2.3906 0-3.3047 0.91406-0.91406 2.3906-0.91406 3.3047 0l9.3789 9.3789 7.6992-7.6992-9.4453-9.4453c-0.91406-0.91406-0.91406-2.3906 0-3.3047 0.91406-0.91406 2.3906-0.91406 3.3047 0l9.4453 9.4453 7.6992-7.6992-9.5117-9.5117c-0.91406-0.91406-0.91406-2.3906 0-3.3047 0.91406-0.91406 2.3906-0.91406 3.3047 0l9.5117 9.5117 16.316-16.316-21.43-46.238-102.37 102.37c-1.457 1.457-3.8164 1.457-5.2812 0l-103.74-103.74-21.43 46.238 17.184 17.184 9.0898-9.0898c0.91406-0.91406 2.3906-0.91406 3.3047 0 0.91406 0.91406 0.91406 2.3906 0 3.3047l-9.0898 9.0898 7.6992 7.6992 9.1562-9.1562c0.91406-0.91406 2.3906-0.91406 3.3047 0 0.91406 0.91406 0.91406 2.3906 0 3.3047l-9.1562 9.1562 7.6992 7.6992 9.2227-9.2227c0.91406-0.91406 2.3906-0.91406 3.3047 0 0.91406 0.91406 0.91406 2.3906 0 3.3047l-9.2227 9.2227 7.6992 7.6992 9.2852-9.2852c0.91406-0.91406 2.3906-0.91406 3.3047 0 0.91406 0.91406 0.91406 2.3906 0 3.3047l-9.2852 9.2852 7.6992 7.6992 9.3516-9.3516c0.91406-0.91406 2.3906-0.91406 3.3047 0 0.91406 0.91406 0.91406 2.3906 0 3.3047l-9.3516 9.3516 18.668 18.668 8.8867-8.875c0.91406-0.91406 2.3906-0.91406 3.3047 0 0.91406 0.91406 0.91406 2.3906 0 3.3047l-8.8867 8.875 7.6992 7.6992 8.9492-8.9492c0.91406-0.91406 2.3906-0.91406 3.3047 0 0.91406 0.91406 0.91406 2.3906 0 3.3047l-8.9492 8.9492 7.6992 7.6992 9.0156-9.0156c0.91406-0.91406 2.3906-0.91406 3.3047 0 0.91406 0.91406 0.91406 2.3906 0 3.3047l-9.0156 9.0156 7.6992 7.6992zm11.152-4.5547-7.8477 7.8477 8.3516 8.3516 7.8477-7.8477zm150.67-149.73c-0.91406-0.91406-0.91406-2.3906 0-3.3047 0.91406-0.91406 2.3906-0.91406 3.3047 0l7.8789 7.8789 7.6992-7.6992-7.9414-7.9414c-0.91406-0.91406-0.91406-2.3906 0-3.3047 0.91406-0.91406 2.3906-0.91406 3.3047 0l7.9414 7.9414 7.6992-7.6992-8.0078-8.0078c-0.91406-0.91406-0.91406-2.3906 0-3.3047 0.91406-0.91406 2.3906-0.91406 3.3047 0l8.0078 8.0078 27.637-27.637c-10.078-4.7422-21.066-0.42188-31.836 3.8164-13.824 5.4414-27.336 10.754-40.207 0.55859l-14.383 14.383 20.039 47.629 13.457-13.457-7.8789-7.8789zm-253.2-15.336 103.03 103.03 101.66-101.66-27.02-58.305-0.054688-0.1875c-3.125-9.8828-17.742-17.352-30.297-23.754-7.832-3.9961-14.914-7.6172-18.863-11.648l-0.48438-0.49609-25.938-60.555-25.938 60.555-0.48438 0.49609c-3.9492 4.043-11.031 7.6523-18.863 11.648-12.543 6.4023-27.168 13.871-30.297 23.754l-0.054688 0.1875-26.387 56.934zm77.934-207.58c0.14063-0.34375 0.33594-0.66406 0.55859-0.94141l-3.0508-7.1289c-0.63281-0.36328-1.25-0.74609-1.8477-1.1367-0.64453-0.42188-1.2695-0.85938-1.8672-1.3164l-164.59 391.13c-0.66406 1.793-0.50391 3.043 0.054688 3.6875 0.14062 0.16016 0.32812 0.28906 0.54297 0.375 0.22266 0.085938 0.45703 0.12109 0.67969 0.10156 0.82031-0.074218 1.7344-0.8125 2.3711-2.3906l0.074219-0.17578 108.55-234.21c4.1719-12.738 20.199-20.926 33.953-27.945 6.9258-3.5391 13.227-6.7461 16.445-9.7422l28.176-65.773-3.7227-8.6875-29.215 68.891c-0.42188 1.2617-1.5039 2.2578-2.9023 2.5-5.1055 0.91406-9.2031 2.418-13.535 4.8984-4.4883 2.5859-9.3984 6.3086-15.961 11.535-1.0156 0.8125-2.4375 1.0625-3.7344 0.53125-1.9023-0.78516-2.8086-2.957-2.0234-4.8516 8.6602-21.121 17.109-40.434 25.555-59.754 8.457-19.348 16.922-38.688 25.5-59.602zm4.5742 8.4375c-7.8477 18.957-15.551 36.551-23.238 54.145-6.7188 15.363-13.441 30.727-20.215 46.871 2.0234-1.418 3.9492-2.6602 5.8516-3.7539 4.5625-2.6211 8.8672-4.3203 13.945-5.4141l31.078-73.293c0.085938-0.19531 0.17578-0.38281 0.28906-0.55078zm56.512 96.312-39.293-92.652c-0.79297-1.8945 0.09375-4.0703 1.9883-4.8711 0.17578-0.074219 0.36328-0.14063 0.54297-0.17578v-0.007812l21.832-5.5234c1.8945-0.47656 3.8164 0.59766 4.4336 2.418 8.4844 20.703 16.379 39.133 24.266 57.566 7.8398 18.312 15.68 36.625 24.387 57.867 0.78516 1.9023-0.12891 4.0781-2.0234 4.8516-1.2891 0.53125-2.707 0.28125-3.7344-0.53125-6.5625-5.2266-11.469-8.9492-15.961-11.535-4.332-2.4922-8.418-3.9961-13.535-4.8984-1.3984-0.24219-2.4844-1.2422-2.9023-2.5zm-30.742-91.551 36.934 87.098c5.0781 1.0938 9.3789 2.7891 13.945 5.4141 1.9141 1.1016 3.8438 2.3438 5.8789 3.7695-6.5703-15.781-12.832-30.426-19.105-45.07-7.4648-17.445-14.934-34.887-23.156-54.879zm-22.895-16.988 48.879 114.1c3.2188 2.9883 9.5195 6.207 16.445 9.7422 13.758 7.0195 29.781 15.203 33.953 27.945l108.55 234.21 0.074219 0.17578c0.63281 1.5664 1.5391 2.3047 2.3711 2.3906 0.22266 0.019531 0.45703-0.019531 0.67969-0.10156 0.21484-0.085937 0.40234-0.21484 0.54297-0.375 0.57031-0.65234 0.71875-1.8945 0.054687-3.6875l-164.53-390.96c-0.53125 0.39063-1.082 0.77344-1.6445 1.1484-7.3828 4.8516-17.492 7.8594-28.59 7.8594-5.9727 0-11.668-0.86719-16.801-2.4375zm41.301-40.348c-6.207-4.0781-14.859-6.6094-24.5-6.6094-9.6406 0-18.293 2.5195-24.5 6.6094-5.75 3.7812-9.3047 8.8672-9.3047 14.355s3.5547 10.574 9.3047 14.355c6.207 4.0781 14.859 6.6094 24.5 6.6094 9.6406 0 18.293-2.5195 24.5-6.6094 5.75-3.7812 9.3047-8.8672 9.3047-14.355s-3.5547-10.574-9.3047-14.355zm-17.621 7.7734c-1.7656-1.7656-4.2109-2.8555-6.9062-2.8555-2.6992 0-5.1445 1.0938-6.9062 2.8555-1.7656 1.7656-2.8555 4.2109-2.8555 6.9062 0 2.6992 1.0938 5.1445 2.8555 6.9062 1.7656 1.7656 4.2109 2.8555 6.9062 2.8555 2.6992 0 5.1445-1.0938 6.9062-2.8555 1.7656-1.7656 2.8555-4.2109 2.8555-6.9062 0-2.6992-1.0938-5.1445-2.8555-6.9062z"/>
  <use x="70" y="560.140625" xlink:href="#w"/>
  <use x="70.035156" y="560.140625" xlink:href="#e"/>
  <use x="70.058594" y="560.140625" xlink:href="#b"/>
  <use x="70.089844" y="560.140625" xlink:href="#a"/>
  <use x="70.121094" y="560.140625" xlink:href="#d"/>
  <use x="70.144531" y="560.140625" xlink:href="#b"/>
  <use x="70.175781" y="560.140625" xlink:href="#l"/>
  <use x="70.222656" y="560.140625" xlink:href="#k"/>
  <use x="70.257812" y="560.140625" xlink:href="#j"/>
  <use x="70.304688" y="560.140625" xlink:href="#i"/>
  <use x="70.34375" y="560.140625" xlink:href="#v"/>
  <use x="70.359375" y="560.140625" xlink:href="#b"/>
  <use x="70.390625" y="560.140625" xlink:href="#f"/>
  <use x="70.425781" y="560.140625" xlink:href="#a"/>
  <use x="70.472656" y="560.140625" xlink:href="#h"/>
  <use x="70.507812" y="560.140625" xlink:href="#a"/>
  <use x="70.539062" y="560.140625" xlink:href="#f"/>
  <use x="70.570312" y="560.140625" xlink:href="#a"/>
  <use x="70.601562" y="560.140625" xlink:href="#g"/>
  <use x="70.628906" y="560.140625" xlink:href="#c"/>
  <use x="70.664062" y="560.140625" xlink:href="#u"/>
  <use x="70.691406" y="560.140625" xlink:href="#g"/>
  <use x="70.722656" y="560.140625" xlink:href="#t"/>
  <use x="70.75" y="560.140625" xlink:href="#a"/>
  <use x="70" y="560.1875" xlink:href="#s"/>
  <use x="70.019531" y="560.1875" xlink:href="#e"/>
  <use x="70.042969" y="560.1875" xlink:href="#c"/>
  <use x="70.074219" y="560.1875" xlink:href="#r"/>
  <use x="70.140625" y="560.1875" xlink:href="#d"/>
  <use x="70.164062" y="560.1875" xlink:href="#q"/>
  <use x="70.195312" y="560.1875" xlink:href="#b"/>
  <use x="70.242188" y="560.1875" xlink:href="#p"/>
  <use x="70.28125" y="560.1875" xlink:href="#c"/>
  <use x="70.316406" y="560.1875" xlink:href="#o"/>
  <use x="70.347656" y="560.1875" xlink:href="#f"/>
  <use x="70.398438" y="560.1875" xlink:href="#h"/>
  <use x="70.433594" y="560.1875" xlink:href="#e"/>
  <use x="70.453125" y="560.1875" xlink:href="#c"/>
  <use x="70.488281" y="560.1875" xlink:href="#n"/>
  <use x="70.503906" y="560.1875" xlink:href="#b"/>
  <use x="70.535156" y="560.1875" xlink:href="#m"/>
  <use x="70.5625" y="560.1875" xlink:href="#d"/>
 </g>
</svg>
